<svg width="415" height="46" viewBox="0 0 415 46" fill="none" xmlns="http://www.w3.org/2000/svg">
<path d="M153.569 35.006V4.26343H158.414L173.319 28.1122H173.505L173.319 22.15V4.26343H177.232V35.006H173.133L157.482 9.85298H157.296L157.482 15.8152V34.8196H153.569V35.006Z" fill="#5F6368"/>
<path d="M192.142 35.5651C189.161 35.7514 186.366 34.4472 184.316 32.3977C182.267 30.1619 181.149 27.3671 181.335 24.386C181.335 21.4049 182.267 18.6101 184.13 16.3743C185.993 14.1385 188.788 13.0206 191.583 13.0206C194.378 12.8343 197.172 13.9522 199.036 16.0017C201.085 18.2375 202.017 21.2186 201.83 24.1997V25.1313H185.434C185.434 26.9945 186.18 28.8577 187.484 30.1619C188.788 31.2798 190.279 32.0251 191.955 32.0251C194.378 32.2114 196.8 30.7208 197.731 28.485L201.271 29.9756C200.526 31.6524 199.408 33.143 197.918 34.0746C196.241 35.1925 194.191 35.7514 192.142 35.5651ZM197.731 21.9639C197.545 20.6596 196.986 19.5417 196.054 18.6101C194.75 17.4922 193.26 16.9333 191.583 16.9333C190.279 16.9333 188.974 17.4922 187.856 18.2375C186.739 19.1691 185.993 20.4733 185.621 21.9639H197.731Z" fill="#5F6368"/>
<path d="M227.729 35.0044H223.63L218.413 18.981L213.196 35.0044H209.283L202.576 13.9504H206.675L211.333 29.7875L216.55 13.9504H220.649L225.865 29.7875L230.523 13.9504H234.622L227.729 35.0044Z" fill="#5F6368"/>
<path d="M244.497 35.5653C242.448 35.5653 240.398 35.0063 238.721 33.8884C237.231 32.7705 236.113 31.28 235.368 29.6031L238.908 28.1126C239.653 30.5347 242.075 32.2116 244.684 32.0253C245.802 32.0253 246.733 31.8389 247.665 31.28C248.41 30.9073 248.783 29.9757 248.783 29.0442C248.783 27.7399 247.851 26.8083 245.988 26.2494L241.702 25.1315C240.398 24.7588 239.094 24.1999 237.976 23.2683C236.672 22.3367 236.113 20.8461 236.113 19.3556C236.113 17.4924 237.045 15.8155 238.535 14.884C241.702 12.8345 245.988 12.6481 249.342 14.325C250.832 15.0703 251.95 16.3745 252.509 18.0514L249.155 19.5419C248.41 17.6787 246.36 16.5608 244.311 16.7471C243.193 16.7471 242.261 16.9335 241.33 17.4924C240.585 17.865 240.212 18.6103 240.212 19.5419C240.212 20.6598 241.144 21.5914 243.007 21.9641L247.106 22.8956C248.783 23.2683 250.273 24.0136 251.577 25.3178C252.509 26.4357 253.068 27.7399 253.068 29.0442C253.068 30.9073 252.136 32.5842 250.832 33.7021C248.783 35.0063 246.547 35.7516 244.497 35.5653Z" fill="#5F6368"/>
<path d="M266.3 35.006V4.26343H270.212V35.006H266.3Z" fill="#5F6368"/>
<path d="M279.34 13.9548V16.9359H279.526C280.085 15.818 281.203 14.8864 282.134 14.3275C283.252 13.5822 284.743 13.2095 286.047 13.2095C288.283 13.0232 290.519 13.9548 292.009 15.6317C293.5 17.4949 294.245 19.7307 294.059 21.9665V34.8225H290.146V22.5255C290.146 18.6128 288.469 16.7496 284.929 16.7496C283.439 16.7496 281.948 17.4949 281.017 18.6128C279.899 19.917 279.526 21.4076 279.526 23.0844V34.6362H275.613V13.9548H279.34Z" fill="#5F6368"/>
<path d="M302.63 8.73525C301.512 9.85316 299.835 9.85316 298.717 8.73525C298.159 8.1763 297.972 7.43102 297.972 6.87207C297.972 6.12679 298.159 5.38152 298.717 4.82256C299.835 3.70465 301.512 3.70465 302.63 4.82256C303.189 5.38152 303.375 6.12679 303.375 6.68575C303.375 7.43102 303.003 8.1763 302.63 8.73525ZM302.63 35.0062H298.717V13.9522H302.63V35.0062Z" fill="#5F6368"/>
<path d="M316.042 35.3796C312.688 35.7522 309.707 33.3301 309.334 29.9764C309.334 29.6037 309.334 29.0448 309.334 28.6721V17.493H305.608V13.953H309.334V7.61816H313.247V13.953H318.464V17.493H313.247V28.2995C313.247 30.5353 314.178 31.6532 316.042 31.6532C316.6 31.6532 317.346 31.6532 317.905 31.2806L319.209 34.6343C318.091 35.1933 316.973 35.3796 316.042 35.3796Z" fill="#5F6368"/>
<path d="M325.732 8.73379C324.614 9.8517 322.938 9.8517 321.82 8.73379C320.702 7.61588 320.702 5.93901 321.82 4.8211C322.938 3.70319 324.614 3.70319 325.732 4.8211C326.291 5.38005 326.478 6.12533 326.478 6.8706C326.478 7.42956 326.291 8.17483 325.732 8.73379ZM325.732 35.0047H321.82V13.9507H325.732V35.0047Z" fill="#5F6368"/>
<path d="M336.911 35.5663C334.862 35.5663 332.812 35.0073 331.322 33.7031C329.831 32.3988 329.086 30.5357 329.086 28.6725C329.086 26.623 330.018 24.5735 331.694 23.2692C333.558 21.965 335.98 21.2197 338.216 21.4061C340.265 21.4061 342.128 21.7787 343.991 22.7103V22.1513C343.991 20.6608 343.432 19.3566 342.315 18.425C341.197 17.4934 339.892 16.9344 338.402 16.9344C337.284 16.9344 336.166 17.1207 335.234 17.6797C334.303 18.2386 333.744 18.9839 333.371 19.9155L329.645 18.2386C330.204 16.7481 331.322 15.6302 332.44 14.6986C334.117 13.5807 335.98 13.0217 338.029 13.0217C340.451 13.0217 342.873 13.767 344.737 15.4439C346.6 17.1207 347.531 19.5429 347.345 22.1513V34.821H343.619V31.8399H343.805C342.315 34.4483 339.706 35.7526 336.911 35.5663ZM337.657 32.0262C339.333 32.0262 340.824 31.2809 342.128 30.163C343.432 29.0451 344.178 27.5546 344.178 25.8777C342.687 24.9461 341.01 24.3872 339.147 24.5735C337.657 24.3872 335.98 24.9461 334.862 25.8777C333.93 26.623 333.371 27.7409 333.371 28.8588C333.371 29.7904 333.93 30.722 334.675 31.2809C335.421 31.6536 336.539 32.0262 337.657 32.0262Z" fill="#5F6368"/>
<path d="M360.573 35.3796C357.219 35.7522 354.238 33.3301 353.865 29.9764C353.865 29.6037 353.865 29.0448 353.865 28.6721V17.493H350.139V13.953H353.865V7.61816H357.778V13.953H362.995V17.493H357.778V28.2995C357.778 30.5353 358.71 31.6532 360.573 31.6532C361.132 31.6532 361.877 31.6532 362.436 31.2806L363.74 34.6343C362.809 35.1933 361.691 35.3796 360.573 35.3796Z" fill="#5F6368"/>
<path d="M370.259 8.73456C369.141 9.85247 367.465 9.85247 366.347 8.73456C365.788 8.1756 365.601 7.43033 365.601 6.68505C365.601 5.93978 365.788 5.19451 366.347 4.63555C367.465 3.51764 369.141 3.51764 370.259 4.63555C370.818 5.19451 371.005 5.93978 371.005 6.68505C371.191 7.43033 370.818 8.1756 370.259 8.73456ZM370.259 35.0055H366.347V13.9515H370.259V35.0055Z" fill="#5F6368"/>
<path d="M381.252 35.0051L372.867 13.9512H377.152L383.487 30.1609L389.822 13.9512H394.107L385.537 35.0051H381.252Z" fill="#5F6368"/>
<path d="M404.916 35.5651C401.935 35.7514 399.14 34.4472 397.277 32.3977C395.227 30.1619 394.109 27.3671 394.295 24.386C394.295 21.4049 395.227 18.6101 397.277 16.3743C399.14 14.1385 401.935 13.0206 404.729 13.0206C407.524 12.8343 410.319 13.9522 412.182 16.0017C414.232 18.2375 415.163 21.2186 414.977 24.1997V25.1313H398.394C398.394 26.9945 399.14 28.8577 400.444 30.1619C401.748 31.2798 403.239 32.0251 404.916 32.0251C407.338 32.2114 409.76 30.7208 410.691 28.485L414.232 29.9756C413.486 31.6524 412.368 33.143 410.878 34.0746C408.828 35.1925 406.779 35.7514 404.916 35.5651ZM410.505 21.9639C410.319 20.6596 409.76 19.5417 408.828 18.6101C407.71 17.4922 406.034 16.9333 404.357 16.9333C403.052 16.9333 401.748 17.4922 400.63 18.2375C399.512 19.1691 398.767 20.4733 398.394 21.9639H410.505Z" fill="#5F6368"/>
<path d="M18.3052 35.5649C8.80291 35.5649 0.977539 27.9258 0.977539 18.2373C0.977539 8.54873 8.80291 0.909668 18.3052 0.909668C22.7768 0.909668 27.0621 2.58653 30.2295 5.75395L26.8758 9.10768C24.64 6.87186 21.4726 5.56763 18.3052 5.75395C11.4114 5.94027 5.82182 11.9025 6.19445 18.7962C6.38077 25.3174 11.784 30.7206 18.3052 30.9069C21.6589 31.0933 24.8263 29.789 27.0621 27.3669C28.5527 25.69 29.4843 23.6405 29.6706 21.4047H18.3052V16.7467H34.3285C34.5149 17.6783 34.5149 18.6099 34.5149 19.7278C34.7012 23.8268 33.2106 27.9258 30.4158 30.9069C27.2484 34.0744 22.9631 35.9375 18.3052 35.5649Z" fill="#4285F4"/>
<path d="M59.2944 24.3861C59.2944 30.5346 54.2638 35.3789 48.1153 35.1926C41.9667 35.1926 37.1225 30.162 37.3088 24.0135C37.3088 18.0513 42.3394 13.207 48.3016 13.207C54.2638 13.207 59.2944 18.0513 59.2944 24.0135C59.2944 24.1998 59.2944 24.3861 59.2944 24.3861ZM54.4501 24.3861C54.8227 21.0324 52.2143 17.865 48.8605 17.6787C45.5068 17.306 42.3394 19.9145 42.1531 23.2682C42.1531 23.6409 42.1531 24.0135 42.1531 24.3861C41.7804 27.7399 44.3889 30.9073 47.7426 31.0936C51.0964 31.4662 54.2638 28.8578 54.4501 25.504C54.4501 25.3177 54.4501 24.9451 54.4501 24.3861Z" fill="#EA4335"/>
<path d="M83.889 24.3861C83.889 30.5346 78.8584 35.3789 72.7099 35.1926C66.5614 35.1926 61.7171 30.162 61.9034 24.0135C61.9034 18.0513 66.934 13.207 72.8962 13.207C78.8584 13.207 83.889 18.0513 83.889 24.0135C83.889 24.1998 83.889 24.3861 83.889 24.3861ZM79.0447 24.3861C79.4173 21.0324 76.8089 17.865 73.4551 17.6787C70.1014 17.306 66.934 19.9145 66.7477 23.2682C66.7477 23.6409 66.7477 24.0135 66.7477 24.3861C66.375 27.7399 68.9835 30.9073 72.3372 31.0936C75.691 31.4662 78.8584 28.8578 79.0447 25.504C79.231 25.3177 79.231 24.9451 79.0447 24.3861Z" fill="#FBBC04"/>
<path d="M108.108 13.9523V34.0747C108.108 42.2727 103.264 45.6264 97.488 45.6264C93.2027 45.6264 89.29 43.018 87.6131 39.1053L91.8984 37.2421C92.83 39.4779 95.0658 41.1548 97.488 41.1548C101.214 41.1548 103.45 38.919 103.45 34.6336V32.9568H103.264C101.773 34.6336 99.5375 35.5652 97.3017 35.5652C91.1532 35.5652 86.1226 30.5346 86.1226 24.3861C86.1226 18.2376 91.1532 13.207 97.3017 13.207C99.5375 13.207 101.587 14.1386 103.264 15.6292H103.45V13.766L108.108 13.9523ZM103.636 24.5725C104.009 21.0324 101.401 18.0513 97.8606 17.6787H97.6743C94.1343 17.865 91.3395 20.8461 91.5258 24.3861C91.3395 27.9262 94.1343 30.9073 97.6743 31.0936C97.6743 31.0936 97.6743 31.0936 97.8606 31.0936C101.401 30.9073 104.009 28.1125 103.823 24.5725C103.636 24.5725 103.636 24.5725 103.636 24.5725Z" fill="#4285F4"/>
<path d="M116.681 2.02856V34.8206H111.837V2.02856H116.681Z" fill="#34A853"/>
<path d="M135.872 28.1127L139.598 30.7212C137.549 33.8886 134.009 35.7518 130.282 35.7518C124.32 35.7518 119.476 31.0938 119.289 25.1316C119.289 24.9453 119.289 24.759 119.289 24.5727C119.289 17.8652 123.947 13.3936 129.723 13.3936C134.009 13.5799 137.921 16.3747 139.225 20.4737L139.784 21.7779L124.879 27.9264C125.811 29.9759 128.046 31.4664 130.282 31.2801C132.704 31.2801 134.754 30.1622 135.872 28.1127ZM124.32 24.2L134.381 20.101C133.636 18.6105 131.959 17.6789 130.282 17.6789C126.742 17.6789 124.134 20.66 124.32 24.2C124.134 24.0137 124.134 24.0137 124.32 24.2Z" fill="#EA4335"/>
</svg>